<?xml version="1.0" encoding="utf-8"?>
<!-- Generator: Adobe Illustrator 19.1.0, SVG Export Plug-In . SVG Version: 6.00 Build 0)  -->
<!DOCTYPE svg PUBLIC "-//W3C//DTD SVG 1.1//EN" "http://www.w3.org/Graphics/SVG/1.1/DTD/svg11.dtd">
<svg version="1.1" id="Layer_1" xmlns="http://www.w3.org/2000/svg" xmlns:xlink="http://www.w3.org/1999/xlink" x="0px" y="0px"
	 viewBox="0 0 250 50" enable-background="new 0 0 250 50" xml:space="preserve">
<rect width="250" height="50"/>
<g>
	<path fill="#FFFFFF" d="M17.7,34.1h-4.1l1.1-6.6h4.1l0.5-2.8h-4l1.1-6.6h4l1.6-9.3h7.4L27.8,18h4l1.6-9.3h7.4L39.3,18h4.3l-1.1,6.6
		h-4.3l-0.5,2.8h4.2l-1.1,6.6h-4.2l-1.4,8.2h-7.4l1.4-8.2h-4l-1.4,8.2h-7.4L17.7,34.1z M30.2,27.4l0.5-2.8h-4l-0.5,2.8H30.2z"/>
	<path fill="#FFFFFF" d="M65.1,31.8c-0.1,2.7-1.2,4.9-3.1,6.5c-1.9,1.6-4.2,2.5-6.9,2.5c-3.2,0-5.7-0.9-7.5-2.7
		c-1.8-1.8-2.9-4.3-3.4-7.4l7.4-1c0.2,1.1,0.6,2,1.3,2.7c0.8,0.9,1.7,1.2,2.7,1c1.3-0.1,2-0.9,2.1-2.2c0.1-1.1-0.5-1.9-1.8-2.5
		l-3.3-1.1c-1.3-0.4-2.4-1-3.3-1.8c-2.7-2.1-3.9-4.8-3.6-8V18c0.2-2.5,1.2-4.5,3-6.1c1.9-1.6,4-2.5,6.5-2.5c4,0,7.2,2,9.6,6.1
		l-6.5,3.6c-0.9-1.7-2-2.4-3.4-2.3c-1.1,0.1-1.6,0.7-1.7,1.7c-0.1,1,0.5,1.6,1.7,2h-0.1l3.2,1.1c1.2,0.4,2.3,0.9,3.3,1.7
		C64.2,25.7,65.4,28.5,65.1,31.8L65.1,31.8z"/>
	<path fill="#FFFFFF" d="M104.7,9.4L92.4,41.1l-9.2-16.6c-0.4,0.9-0.8,1.7-1.2,2.4c-0.4,0.7-0.7,1.4-1.1,2l-7,12.2L61.7,9.4h7.9
		l5.4,14.6l8.2-14.8l8.1,14.8c0.9-2.2,1.7-4.6,2.7-7c0.9-2.4,1.9-5,2.8-7.7H104.7z"/>
	<path fill="#FFFFFF" d="M124.4,41h-8.3l-3.2-6.6h-9l-3.1,6.6h-8.3l15.6-31.7L124.4,41z"/>
	<path fill="#FFFFFF" d="M151,23.9c0.3,5.1-1.1,9.4-4.2,12.7c-3.1,3.4-7.2,5-12.3,5c-4.7,0-8.7-1.6-11.8-4.7
		c-3.2-3.2-4.7-7.1-4.7-11.9c0-4.7,1.6-8.6,4.8-11.8c3.2-3.2,7.1-4.8,11.8-4.8c5.6,0,10.3,2.6,14.1,7.7l-6,4.4
		c-2.2-3.1-4.9-4.6-8.1-4.6c-2.6,0-4.7,0.9-6.5,2.6c-1.8,1.8-2.6,3.9-2.6,6.5c0,2.7,0.9,4.9,2.6,6.6c1.7,1.7,3.9,2.6,6.5,2.6
		c2.9,0,5.2-0.9,6.9-2.8h-1.8c-0.3,0-0.7,0-1.1,0c-0.4,0-0.9,0-1.5-0.1c-0.5,0-1-0.1-1.4-0.1c-0.4,0-0.8,0-1.1,0h-1.8v-7.4L151,23.9
		z"/>
	<path fill="#FFFFFF" d="M187.9,9.4l-12.3,31.7l-9.2-16.6c-0.4,0.9-0.8,1.7-1.2,2.4c-0.4,0.7-0.7,1.4-1.1,2l-7,12.2L144.9,9.4h7.9
		l5.4,14.6l8.2-14.8l8.1,14.8c0.9-2.2,1.7-4.6,2.7-7c0.9-2.4,1.9-5,2.8-7.7H187.9z"/>
	<path fill="#FFFFFF" d="M207.6,41h-8.3l-3.2-6.6h-9l-3.1,6.6h-8.3l15.6-31.7L207.6,41z"/>
	<path fill="#FFFFFF" d="M223.6,9.4l-9.3,19.9V41h-7.4V29.6l-9.6-20.2h8.3l4.9,10.5l4.8-10.5H223.6z"/>
	<path fill="#FFFFFF" d="M236.2,31.8c-0.1,2.7-1.2,4.9-3.1,6.5c-1.9,1.6-4.2,2.5-6.9,2.5c-3.2,0-5.7-0.9-7.5-2.7s-2.9-4.3-3.4-7.4
		l7.4-1c0.2,1.1,0.6,2,1.3,2.7c0.8,0.9,1.7,1.2,2.7,1c1.3-0.1,2-0.9,2.1-2.2c0.1-1.1-0.5-1.9-1.8-2.5l-3.3-1.1
		c-1.3-0.4-2.4-1-3.3-1.8c-2.7-2.1-3.9-4.8-3.6-8V18c0.2-2.5,1.2-4.5,3-6.1c1.9-1.6,4-2.5,6.5-2.5c4,0,7.2,2,9.6,6.1l-6.5,3.6
		c-0.9-1.7-2-2.4-3.4-2.3c-1.1,0.1-1.6,0.7-1.7,1.7c-0.1,1,0.5,1.6,1.7,2h-0.1l3.2,1.1c1.2,0.4,2.3,0.9,3.3,1.7
		C235.2,25.7,236.5,28.5,236.2,31.8L236.2,31.8z"/>
</g>
</svg>
